<svg xmlns="http://www.w3.org/2000/svg" xmlns:xlink="http://www.w3.org/1999/xlink" id="body_1" preserveAspectRatio="xMinYMin meet" viewBox="0 0 820 1160"><defs><clipPath id="1"><path id="" clip-rule="evenodd" transform="matrix(1 0 0 1 0 0)" d="M0 870L0 0L0 0L615 0L615 0L615 870L615 870L0 870z" /></clipPath><clipPath id="2"><path id="" clip-rule="evenodd" transform="matrix(1 0 0 1 0 0)" d="M0 0L614.4 0L614.4 0L614.4 869.1512L614.4 869.1512L0 869.1512L0 869.1512L0 0z" /></clipPath><clipPath id="3"><path id="" clip-rule="evenodd" transform="matrix(1 0 0 1 0 0)" d="M0 0L614.4 0L614.4 0L614.4 869.1512L614.4 869.1512L0 869.1512L0 869.1512L0 0z" /></clipPath><clipPath id="4"><path id="" clip-rule="evenodd" transform="matrix(1 0 0 1 0 0)" d="M58.44292 30.71997L154.3493 30.71997L154.3493 30.71997L154.3493 149.1044L154.3493 149.1044L58.44292 149.1044L58.44292 149.1044L58.44292 30.71997z" /></clipPath><clipPath id="5"><path id="" clip-rule="evenodd" transform="matrix(1 0 0 1 0 0)" d="M0 0L614.4 0L614.4 0L614.4 869.1512L614.4 869.1512L0 869.1512L0 869.1512L0 0z" /></clipPath><clipPath id="6"><path id="" clip-rule="evenodd" transform="matrix(1 0 0 1 0 0)" d="M0 0L614.4 0L614.4 0L614.4 869.1512L614.4 869.1512L0 869.1512L0 869.1512L0 0z" /></clipPath><clipPath id="7"><path id="" clip-rule="evenodd" transform="matrix(1 0 0 1 0 0)" d="M61.43999 33.71704L151.3522 33.71704L151.3522 33.71704L151.3522 146.1073L151.3522 146.1073L61.43999 146.1073L61.43999 146.1073L61.43999 33.71704z" /></clipPath><clipPath id="8"><path id="" clip-rule="evenodd" transform="matrix(1 0 0 1 0 0)" d="M0 0L614.4 0L614.4 0L614.4 869.1512L614.4 869.1512L0 869.1512L0 869.1512L0 0z" /></clipPath><clipPath id="9"><path id="" clip-rule="evenodd" transform="matrix(1 0 0 1 0 0)" d="M61.43999 33.71704L151.3522 33.71704L151.3522 33.71704L151.3522 146.1073L151.3522 146.1073L61.43999 146.1073L61.43999 146.1073L61.43999 33.71704z" /></clipPath><clipPath id="10"><path id="" clip-rule="evenodd" transform="matrix(1 0 0 1 0 0)" d="M61.43999 33.71704L151.3522 33.71704L151.3522 33.71704L151.3522 146.1073L151.3522 146.1073L61.43999 146.1073L61.43999 146.1073L61.43999 33.71704z" /></clipPath><clipPath id="11"><path id="" clip-rule="evenodd" transform="matrix(1 0 0 1 0 0)" d="M0 0L614.4 0L614.4 0L614.4 869.1512L614.4 869.1512L0 869.1512L0 869.1512L0 0z" /></clipPath><clipPath id="12"><path id="" clip-rule="evenodd" transform="matrix(1 0 0 1 0 0)" d="M0 0L614.4 0L614.4 0L614.4 869.1512L614.4 869.1512L0 869.1512L0 869.1512L0 0z" /></clipPath><clipPath id="13"><path id="" clip-rule="evenodd" transform="matrix(1 0 0 1 0 0)" d="M61.43999 33.71704L151.3522 33.71704L151.3522 33.71704L151.3522 146.1073L151.3522 146.1073L61.43999 146.1073L61.43999 146.1073L61.43999 33.71704z" /></clipPath><clipPath id="14"><path id="" clip-rule="evenodd" transform="matrix(1 0 0 1 0 0)" d="M0 0L614.4 0L614.4 0L614.4 869.1512L614.4 869.1512L0 869.1512L0 869.1512L0 0z" /></clipPath><clipPath id="15"><path id="" clip-rule="evenodd" transform="matrix(1 0 0 1 0 0)" d="M61.43999 33.71704L151.3522 33.71704L151.3522 33.71704L151.3522 146.1073L151.3522 146.1073L61.43999 146.1073L61.43999 146.1073L61.43999 33.71704z" /></clipPath><clipPath id="16"><path id="" clip-rule="evenodd" transform="matrix(1 0 0 1 0 0)" d="M61.43999 33.71704L151.3522 33.71704L151.3522 33.71704L151.3522 146.1073L151.3522 146.1073L61.43999 146.1073L61.43999 146.1073L61.43999 33.71704z" /></clipPath><clipPath id="17"><path id="" clip-rule="evenodd" transform="matrix(1 0 0 1 0 0)" d="M0 0L614.4 0L614.4 0L614.4 869.1512L614.4 869.1512L0 869.1512L0 869.1512L0 0z" /></clipPath><clipPath id="18"><path id="" clip-rule="evenodd" transform="matrix(1 0 0 1 0 0)" d="M0 0L614.4 0L614.4 0L614.4 869.1512L614.4 869.1512L0 869.1512L0 869.1512L0 0z" /></clipPath><clipPath id="19"><path id="" clip-rule="evenodd" transform="matrix(1 0 0 1 0 0)" d="M61.43999 33.71704L151.3522 33.71704L151.3522 33.71704L151.3522 146.1073L151.3522 146.1073L61.43999 146.1073L61.43999 146.1073L61.43999 33.71704z" /></clipPath><clipPath id="20"><path id="" clip-rule="evenodd" transform="matrix(1 0 0 1 0 0)" d="M0 0L614.4 0L614.4 0L614.4 869.1512L614.4 869.1512L0 869.1512L0 869.1512L0 0z" /></clipPath><clipPath id="21"><path id="" clip-rule="evenodd" transform="matrix(1 0 0 1 0 0)" d="M61.43999 33.71704L151.3522 33.71704L151.3522 33.71704L151.3522 146.1073L151.3522 146.1073L61.43999 146.1073L61.43999 146.1073L61.43999 33.71704z" /></clipPath><clipPath id="22"><path id="" clip-rule="evenodd" transform="matrix(1 0 0 1 0 0)" d="M61.43999 33.71704L151.3522 33.71704L151.3522 33.71704L151.3522 146.1073L151.3522 146.1073L61.43999 146.1073L61.43999 146.1073L61.43999 33.71704z" /></clipPath><clipPath id="23"><path id="" clip-rule="evenodd" transform="matrix(1 0 0 1 0 0)" d="M0 0L614.4 0L614.4 0L614.4 869.1512L614.4 869.1512L0 869.1512L0 869.1512L0 0z" /></clipPath><clipPath id="24"><path id="" clip-rule="evenodd" transform="matrix(1 0 0 1 0 0)" d="M0 0L614.4 0L614.4 0L614.4 869.1512L614.4 869.1512L0 869.1512L0 869.1512L0 0z" /></clipPath><clipPath id="25"><path id="" clip-rule="evenodd" transform="matrix(1 0 0 1 0 0)" d="M61.43999 33.71704L151.3522 33.71704L151.3522 33.71704L151.3522 146.1073L151.3522 146.1073L61.43999 146.1073L61.43999 146.1073L61.43999 33.71704z" /></clipPath><clipPath id="26"><path id="" clip-rule="evenodd" transform="matrix(1 0 0 1 0 0)" d="M0 0L614.4 0L614.4 0L614.4 869.1512L614.4 869.1512L0 869.1512L0 869.1512L0 0z" /></clipPath><clipPath id="27"><path id="" clip-rule="evenodd" transform="matrix(1 0 0 1 0 0)" d="M61.43999 33.71704L151.3522 33.71704L151.3522 33.71704L151.3522 146.1073L151.3522 146.1073L61.43999 146.1073L61.43999 146.1073L61.43999 33.71704z" /></clipPath><clipPath id="28"><path id="" clip-rule="evenodd" transform="matrix(1 0 0 1 0 0)" d="M61.43999 33.71704L151.3522 33.71704L151.3522 33.71704L151.3522 146.1073L151.3522 146.1073L61.43999 146.1073L61.43999 146.1073L61.43999 33.71704z" /></clipPath><clipPath id="29"><path id="" clip-rule="evenodd" transform="matrix(1 0 0 1 0 0)" d="M0 0L614.4 0L614.4 0L614.4 869.1512L614.4 869.1512L0 869.1512L0 869.1512L0 0z" /></clipPath><clipPath id="30"><path id="" clip-rule="evenodd" transform="matrix(1 0 0 1 0 0)" d="M0 0L614.4 0L614.4 0L614.4 869.1512L614.4 869.1512L0 869.1512L0 869.1512L0 0z" /></clipPath><clipPath id="31"><path id="" clip-rule="evenodd" transform="matrix(1 0 0 1 0 0)" d="M61.43999 33.71704L151.3522 33.71704L151.3522 33.71704L151.3522 146.1073L151.3522 146.1073L61.43999 146.1073L61.43999 146.1073L61.43999 33.71704z" /></clipPath><clipPath id="32"><path id="" clip-rule="evenodd" transform="matrix(1 0 0 1 0 0)" d="M0 0L614.4 0L614.4 0L614.4 869.1512L614.4 869.1512L0 869.1512L0 869.1512L0 0z" /></clipPath><clipPath id="33"><path id="" clip-rule="evenodd" transform="matrix(1 0 0 1 0 0)" d="M0 0L614.4 0L614.4 0L614.4 869.1512L614.4 869.1512L0 869.1512L0 869.1512L0 0z" /></clipPath><clipPath id="34"><path id="" clip-rule="evenodd" transform="matrix(1 0 0 1 0 0)" d="M49.4517 335.6721L179.0751 335.6721L179.0751 335.6721L179.0751 357.4009L179.0751 357.4009L49.4517 357.4009L49.4517 357.4009L49.4517 335.6721z" /></clipPath><clipPath id="35"><path id="" clip-rule="evenodd" transform="matrix(1 0 0 1 0 0)" d="M0 0L614.4 0L614.4 0L614.4 869.1512L614.4 869.1512L0 869.1512L0 869.1512L0 0z" /></clipPath><clipPath id="36"><path id="" clip-rule="evenodd" transform="matrix(1 0 0 1 0 0)" d="M0 0L614.4 0L614.4 0L614.4 869.1512L614.4 869.1512L0 869.1512L0 869.1512L0 0z" /></clipPath><clipPath id="37"><path id="" clip-rule="evenodd" transform="matrix(1 0 0 1 0 0)" d="M49.4517 335.6721L179.0751 335.6721L179.0751 335.6721L179.0751 357.4009L179.0751 357.4009L49.4517 357.4009L49.4517 357.4009L49.4517 335.6721z" /></clipPath><clipPath id="38"><path id="" clip-rule="evenodd" transform="matrix(1 0 0 1 0 0)" d="M0 0L614.4 0L614.4 0L614.4 869.1512L614.4 869.1512L0 869.1512L0 869.1512L0 0z" /></clipPath><clipPath id="39"><path id="" clip-rule="evenodd" transform="matrix(1 0 0 1 0 0)" d="M0 0L614.4 0L614.4 0L614.4 869.1512L614.4 869.1512L0 869.1512L0 869.1512L0 0z" /></clipPath><clipPath id="40"><path id="" clip-rule="evenodd" transform="matrix(1 0 0 1 0 0)" d="M49.4517 590.4233L179.0751 590.4233L179.0751 590.4233L179.0751 612.1522L179.0751 612.1522L49.4517 612.1522L49.4517 612.1522L49.4517 590.4233z" /></clipPath><clipPath id="41"><path id="" clip-rule="evenodd" transform="matrix(1 0 0 1 0 0)" d="M0 0L614.4 0L614.4 0L614.4 869.1512L614.4 869.1512L0 869.1512L0 869.1512L0 0z" /></clipPath><clipPath id="42"><path id="" clip-rule="evenodd" transform="matrix(1 0 0 1 0 0)" d="M0 0L614.4 0L614.4 0L614.4 869.1512L614.4 869.1512L0 869.1512L0 869.1512L0 0z" /></clipPath><clipPath id="43"><path id="" clip-rule="evenodd" transform="matrix(1 0 0 1 0 0)" d="M49.4517 590.4233L179.0751 590.4233L179.0751 590.4233L179.0751 612.1522L179.0751 612.1522L49.4517 612.1522L49.4517 612.1522L49.4517 590.4233z" /></clipPath><clipPath id="44"><path id="" clip-rule="evenodd" transform="matrix(1 0 0 1 0 0)" d="M0 0L614.4 0L614.4 0L614.4 869.1512L614.4 869.1512L0 869.1512L0 869.1512L0 0z" /></clipPath><clipPath id="45"><path id="" clip-rule="evenodd" transform="matrix(1 0 0 1 0 0)" d="M0 0L614.4 0L614.4 0L614.4 869.1512L614.4 869.1512L0 869.1512L0 869.1512L0 0z" /></clipPath><clipPath id="46"><path id="" clip-rule="evenodd" transform="matrix(1 0 0 1 0 0)" d="M255.5005 86.16583L591.1727 86.16583L591.1727 86.16583L591.1727 108.6439L591.1727 108.6439L255.5005 108.6439L255.5005 108.6439L255.5005 86.16583z" /></clipPath><clipPath id="47"><path id="" clip-rule="evenodd" transform="matrix(1 0 0 1 0 0)" d="M0 0L614.4 0L614.4 0L614.4 869.1512L614.4 869.1512L0 869.1512L0 869.1512L0 0z" /></clipPath><clipPath id="48"><path id="" clip-rule="evenodd" transform="matrix(1 0 0 1 0 0)" d="M0 0L614.4 0L614.4 0L614.4 869.1512L614.4 869.1512L0 869.1512L0 869.1512L0 0z" /></clipPath><clipPath id="49"><path id="" clip-rule="evenodd" transform="matrix(1 0 0 1 0 0)" d="M255.5005 86.16583L591.1727 86.16583L591.1727 86.16583L591.1727 107.8947L591.1727 107.8947L255.5005 107.8947L255.5005 107.8947L255.5005 86.16583z" /></clipPath><clipPath id="50"><path id="" clip-rule="evenodd" transform="matrix(1 0 0 1 0 0)" d="M0 0L614.4 0L614.4 0L614.4 869.1512L614.4 869.1512L0 869.1512L0 869.1512L0 0z" /></clipPath><clipPath id="51"><path id="" clip-rule="evenodd" transform="matrix(1 0 0 1 0 0)" d="M0 0L614.4 0L614.4 0L614.4 869.1512L614.4 869.1512L0 869.1512L0 869.1512L0 0z" /></clipPath><clipPath id="52"><path id="" clip-rule="evenodd" transform="matrix(1 0 0 1 0 0)" d="M255.5005 185.8185L591.1727 185.8185L591.1727 185.8185L591.1727 208.2966L591.1727 208.2966L255.5005 208.2966L255.5005 208.2966L255.5005 185.8185z" /></clipPath><clipPath id="53"><path id="" clip-rule="evenodd" transform="matrix(1 0 0 1 0 0)" d="M0 0L614.4 0L614.4 0L614.4 869.1512L614.4 869.1512L0 869.1512L0 869.1512L0 0z" /></clipPath><clipPath id="54"><path id="" clip-rule="evenodd" transform="matrix(1 0 0 1 0 0)" d="M0 0L614.4 0L614.4 0L614.4 869.1512L614.4 869.1512L0 869.1512L0 869.1512L0 0z" /></clipPath><clipPath id="55"><path id="" clip-rule="evenodd" transform="matrix(1 0 0 1 0 0)" d="M255.5005 185.8185L591.1727 185.8185L591.1727 185.8185L591.1727 207.5473L591.1727 207.5473L255.5005 207.5473L255.5005 207.5473L255.5005 185.8185z" /></clipPath><clipPath id="56"><path id="" clip-rule="evenodd" transform="matrix(1 0 0 1 0 0)" d="M0 0L614.4 0L614.4 0L614.4 869.1512L614.4 869.1512L0 869.1512L0 869.1512L0 0z" /></clipPath><clipPath id="57"><path id="" clip-rule="evenodd" transform="matrix(1 0 0 1 0 0)" d="M0 0L614.4 0L614.4 0L614.4 869.1512L614.4 869.1512L0 869.1512L0 869.1512L0 0z" /></clipPath><clipPath id="58"><path id="" clip-rule="evenodd" transform="matrix(1 0 0 1 0 0)" d="M484.7766 220.2849L579.1844 220.2849L579.1844 220.2849L579.1844 236.0195L579.1844 236.0195L484.7766 236.0195L484.7766 236.0195L484.7766 220.2849z" /></clipPath><clipPath id="59"><path id="" clip-rule="evenodd" transform="matrix(1 0 0 1 0 0)" d="M0 0L614.4 0L614.4 0L614.4 869.1512L614.4 869.1512L0 869.1512L0 869.1512L0 0z" /></clipPath><clipPath id="60"><path id="" clip-rule="evenodd" transform="matrix(1 0 0 1 0 0)" d="M0 0L614.4 0L614.4 0L614.4 869.1512L614.4 869.1512L0 869.1512L0 869.1512L0 0z" /></clipPath><clipPath id="61"><path id="" clip-rule="evenodd" transform="matrix(1 0 0 1 0 0)" d="M484.7766 220.2849L579.1844 220.2849L579.1844 220.2849L579.1844 236.0195L579.1844 236.0195L484.7766 236.0195L484.7766 236.0195L484.7766 220.2849z" /></clipPath><clipPath id="62"><path id="" clip-rule="evenodd" transform="matrix(1 0 0 1 0 0)" d="M0 0L614.4 0L614.4 0L614.4 869.1512L614.4 869.1512L0 869.1512L0 869.1512L0 0z" /></clipPath><clipPath id="63"><path id="" clip-rule="evenodd" transform="matrix(1 0 0 1 0 0)" d="M0 0L614.4 0L614.4 0L614.4 869.1512L614.4 869.1512L0 869.1512L0 869.1512L0 0z" /></clipPath><clipPath id="64"><path id="" clip-rule="evenodd" transform="matrix(1 0 0 1 0 0)" d="M484.7766 220.2849L579.1844 220.2849L579.1844 220.2849L579.1844 236.0195L579.1844 236.0195L484.7766 236.0195L484.7766 236.0195L484.7766 220.2849z" /></clipPath><clipPath id="65"><path id="" clip-rule="evenodd" transform="matrix(1 0 0 1 0 0)" d="M0 0L614.4 0L614.4 0L614.4 869.1512L614.4 869.1512L0 869.1512L0 869.1512L0 0z" /></clipPath><clipPath id="66"><path id="" clip-rule="evenodd" transform="matrix(1 0 0 1 0 0)" d="M0 0L614.4 0L614.4 0L614.4 869.1512L614.4 869.1512L0 869.1512L0 869.1512L0 0z" /></clipPath><clipPath id="67"><path id="" clip-rule="evenodd" transform="matrix(1 0 0 1 0 0)" d="M484.7766 220.2849L579.1844 220.2849L579.1844 220.2849L579.1844 236.0195L579.1844 236.0195L484.7766 236.0195L484.7766 236.0195L484.7766 220.2849z" /></clipPath><clipPath id="68"><path id="" clip-rule="evenodd" transform="matrix(1 0 0 1 0 0)" d="M0 0L614.4 0L614.4 0L614.4 869.1512L614.4 869.1512L0 869.1512L0 869.1512L0 0z" /></clipPath><clipPath id="69"><path id="" clip-rule="evenodd" transform="matrix(1 0 0 1 0 0)" d="M0 0L614.4 0L614.4 0L614.4 869.1512L614.4 869.1512L0 869.1512L0 869.1512L0 0z" /></clipPath><clipPath id="70"><path id="" clip-rule="evenodd" transform="matrix(1 0 0 1 0 0)" d="M331.1765 220.2849L468.2927 220.2849L468.2927 220.2849L468.2927 236.0195L468.2927 236.0195L331.1765 236.0195L331.1765 236.0195L331.1765 220.2849z" /></clipPath><clipPath id="71"><path id="" clip-rule="evenodd" transform="matrix(1 0 0 1 0 0)" d="M0 0L614.4 0L614.4 0L614.4 869.1512L614.4 869.1512L0 869.1512L0 869.1512L0 0z" /></clipPath><clipPath id="72"><path id="" clip-rule="evenodd" transform="matrix(1 0 0 1 0 0)" d="M0 0L614.4 0L614.4 0L614.4 869.1512L614.4 869.1512L0 869.1512L0 869.1512L0 0z" /></clipPath><clipPath id="73"><path id="" clip-rule="evenodd" transform="matrix(1 0 0 1 0 0)" d="M331.1765 220.2849L468.2927 220.2849L468.2927 220.2849L468.2927 236.0195L468.2927 236.0195L331.1765 236.0195L331.1765 236.0195L331.1765 220.2849z" /></clipPath><clipPath id="74"><path id="" clip-rule="evenodd" transform="matrix(1 0 0 1 0 0)" d="M0 0L614.4 0L614.4 0L614.4 869.1512L614.4 869.1512L0 869.1512L0 869.1512L0 0z" /></clipPath><clipPath id="75"><path id="" clip-rule="evenodd" transform="matrix(1 0 0 1 0 0)" d="M0 0L614.4 0L614.4 0L614.4 869.1512L614.4 869.1512L0 869.1512L0 869.1512L0 0z" /></clipPath><clipPath id="76"><path id="" clip-rule="evenodd" transform="matrix(1 0 0 1 0 0)" d="M331.1765 220.2849L468.2927 220.2849L468.2927 220.2849L468.2927 236.0195L468.2927 236.0195L331.1765 236.0195L331.1765 236.0195L331.1765 220.2849z" /></clipPath><clipPath id="77"><path id="" clip-rule="evenodd" transform="matrix(1 0 0 1 0 0)" d="M0 0L614.4 0L614.4 0L614.4 869.1512L614.4 869.1512L0 869.1512L0 869.1512L0 0z" /></clipPath><clipPath id="78"><path id="" clip-rule="evenodd" transform="matrix(1 0 0 1 0 0)" d="M0 0L614.4 0L614.4 0L614.4 869.1512L614.4 869.1512L0 869.1512L0 869.1512L0 0z" /></clipPath><clipPath id="79"><path id="" clip-rule="evenodd" transform="matrix(1 0 0 1 0 0)" d="M331.1765 220.2849L468.2927 220.2849L468.2927 220.2849L468.2927 236.0195L468.2927 236.0195L331.1765 236.0195L331.1765 236.0195L331.1765 220.2849z" /></clipPath><clipPath id="80"><path id="" clip-rule="evenodd" transform="matrix(1 0 0 1 0 0)" d="M0 0L614.4 0L614.4 0L614.4 869.1512L614.4 869.1512L0 869.1512L0 869.1512L0 0z" /></clipPath><clipPath id="81"><path id="" clip-rule="evenodd" transform="matrix(1 0 0 1 0 0)" d="M0 0L614.4 0L614.4 0L614.4 869.1512L614.4 869.1512L0 869.1512L0 869.1512L0 0z" /></clipPath><clipPath id="82"><path id="" clip-rule="evenodd" transform="matrix(1 0 0 1 0 0)" d="M255.5005 323.6838L591.1727 323.6838L591.1727 323.6838L591.1727 346.1619L591.1727 346.1619L255.5005 346.1619L255.5005 346.1619L255.5005 323.6838z" /></clipPath><clipPath id="83"><path id="" clip-rule="evenodd" transform="matrix(1 0 0 1 0 0)" d="M0 0L614.4 0L614.4 0L614.4 869.1512L614.4 869.1512L0 869.1512L0 869.1512L0 0z" /></clipPath><clipPath id="84"><path id="" clip-rule="evenodd" transform="matrix(1 0 0 1 0 0)" d="M0 0L614.4 0L614.4 0L614.4 869.1512L614.4 869.1512L0 869.1512L0 869.1512L0 0z" /></clipPath><clipPath id="85"><path id="" clip-rule="evenodd" transform="matrix(1 0 0 1 0 0)" d="M255.5005 323.6838L591.1727 323.6838L591.1727 323.6838L591.1727 345.4127L591.1727 345.4127L255.5005 345.4127L255.5005 345.4127L255.5005 323.6838z" /></clipPath><clipPath id="86"><path id="" clip-rule="evenodd" transform="matrix(1 0 0 1 0 0)" d="M0 0L614.4 0L614.4 0L614.4 869.1512L614.4 869.1512L0 869.1512L0 869.1512L0 0z" /></clipPath><clipPath id="87"><path id="" clip-rule="evenodd" transform="matrix(1 0 0 1 0 0)" d="M0 0L614.4 0L614.4 0L614.4 869.1512L614.4 869.1512L0 869.1512L0 869.1512L0 0z" /></clipPath><clipPath id="88"><path id="" clip-rule="evenodd" transform="matrix(1 0 0 1 0 0)" d="M484.7766 358.1502L579.1844 358.1502L579.1844 358.1502L579.1844 373.1356L579.1844 373.1356L484.7766 373.1356L484.7766 373.1356L484.7766 358.1502z" /></clipPath><clipPath id="89"><path id="" clip-rule="evenodd" transform="matrix(1 0 0 1 0 0)" d="M0 0L614.4 0L614.4 0L614.4 869.1512L614.4 869.1512L0 869.1512L0 869.1512L0 0z" /></clipPath><clipPath id="90"><path id="" clip-rule="evenodd" transform="matrix(1 0 0 1 0 0)" d="M0 0L614.4 0L614.4 0L614.4 869.1512L614.4 869.1512L0 869.1512L0 869.1512L0 0z" /></clipPath><clipPath id="91"><path id="" clip-rule="evenodd" transform="matrix(1 0 0 1 0 0)" d="M484.7766 358.1502L579.1844 358.1502L579.1844 358.1502L579.1844 373.1356L579.1844 373.1356L484.7766 373.1356L484.7766 373.1356L484.7766 358.1502z" /></clipPath><clipPath id="92"><path id="" clip-rule="evenodd" transform="matrix(1 0 0 1 0 0)" d="M0 0L614.4 0L614.4 0L614.4 869.1512L614.4 869.1512L0 869.1512L0 869.1512L0 0z" /></clipPath><clipPath id="93"><path id="" clip-rule="evenodd" transform="matrix(1 0 0 1 0 0)" d="M0 0L614.4 0L614.4 0L614.4 869.1512L614.4 869.1512L0 869.1512L0 869.1512L0 0z" /></clipPath><clipPath id="94"><path id="" clip-rule="evenodd" transform="matrix(1 0 0 1 0 0)" d="M484.7766 358.1502L579.1844 358.1502L579.1844 358.1502L579.1844 373.1356L579.1844 373.1356L484.7766 373.1356L484.7766 373.1356L484.7766 358.1502z" /></clipPath><clipPath id="95"><path id="" clip-rule="evenodd" transform="matrix(1 0 0 1 0 0)" d="M0 0L614.4 0L614.4 0L614.4 869.1512L614.4 869.1512L0 869.1512L0 869.1512L0 0z" /></clipPath><clipPath id="96"><path id="" clip-rule="evenodd" transform="matrix(1 0 0 1 0 0)" d="M0 0L614.4 0L614.4 0L614.4 869.1512L614.4 869.1512L0 869.1512L0 869.1512L0 0z" /></clipPath><clipPath id="97"><path id="" clip-rule="evenodd" transform="matrix(1 0 0 1 0 0)" d="M484.7766 358.1502L579.1844 358.1502L579.1844 358.1502L579.1844 373.1356L579.1844 373.1356L484.7766 373.1356L484.7766 373.1356L484.7766 358.1502z" /></clipPath><clipPath id="98"><path id="" clip-rule="evenodd" transform="matrix(1 0 0 1 0 0)" d="M0 0L614.4 0L614.4 0L614.4 869.1512L614.4 869.1512L0 869.1512L0 869.1512L0 0z" /></clipPath><clipPath id="99"><path id="" clip-rule="evenodd" transform="matrix(1 0 0 1 0 0)" d="M0 0L614.4 0L614.4 0L614.4 869.1512L614.4 869.1512L0 869.1512L0 869.1512L0 0z" /></clipPath><clipPath id="100"><path id="" clip-rule="evenodd" transform="matrix(1 0 0 1 0 0)" d="M331.1765 358.1502L468.2927 358.1502L468.2927 358.1502L468.2927 373.1356L468.2927 373.1356L331.1765 373.1356L331.1765 373.1356L331.1765 358.1502z" /></clipPath><clipPath id="101"><path id="" clip-rule="evenodd" transform="matrix(1 0 0 1 0 0)" d="M0 0L614.4 0L614.4 0L614.4 869.1512L614.4 869.1512L0 869.1512L0 869.1512L0 0z" /></clipPath><clipPath id="102"><path id="" clip-rule="evenodd" transform="matrix(1 0 0 1 0 0)" d="M0 0L614.4 0L614.4 0L614.4 869.1512L614.4 869.1512L0 869.1512L0 869.1512L0 0z" /></clipPath><clipPath id="103"><path id="" clip-rule="evenodd" transform="matrix(1 0 0 1 0 0)" d="M331.1765 358.1502L468.2927 358.1502L468.2927 358.1502L468.2927 373.1356L468.2927 373.1356L331.1765 373.1356L331.1765 373.1356L331.1765 358.1502z" /></clipPath><clipPath id="104"><path id="" clip-rule="evenodd" transform="matrix(1 0 0 1 0 0)" d="M0 0L614.4 0L614.4 0L614.4 869.1512L614.4 869.1512L0 869.1512L0 869.1512L0 0z" /></clipPath><clipPath id="105"><path id="" clip-rule="evenodd" transform="matrix(1 0 0 1 0 0)" d="M0 0L614.4 0L614.4 0L614.4 869.1512L614.4 869.1512L0 869.1512L0 869.1512L0 0z" /></clipPath><clipPath id="106"><path id="" clip-rule="evenodd" transform="matrix(1 0 0 1 0 0)" d="M331.1765 358.1502L468.2927 358.1502L468.2927 358.1502L468.2927 373.1356L468.2927 373.1356L331.1765 373.1356L331.1765 373.1356L331.1765 358.1502z" /></clipPath><clipPath id="107"><path id="" clip-rule="evenodd" transform="matrix(1 0 0 1 0 0)" d="M0 0L614.4 0L614.4 0L614.4 869.1512L614.4 869.1512L0 869.1512L0 869.1512L0 0z" /></clipPath><clipPath id="108"><path id="" clip-rule="evenodd" transform="matrix(1 0 0 1 0 0)" d="M0 0L614.4 0L614.4 0L614.4 869.1512L614.4 869.1512L0 869.1512L0 869.1512L0 0z" /></clipPath><clipPath id="109"><path id="" clip-rule="evenodd" transform="matrix(1 0 0 1 0 0)" d="M331.1765 358.1502L468.2927 358.1502L468.2927 358.1502L468.2927 373.1356L468.2927 373.1356L331.1765 373.1356L331.1765 373.1356L331.1765 358.1502z" /></clipPath><clipPath id="110"><path id="" clip-rule="evenodd" transform="matrix(1 0 0 1 0 0)" d="M0 0L614.4 0L614.4 0L614.4 869.1512L614.4 869.1512L0 869.1512L0 869.1512L0 0z" /></clipPath><clipPath id="111"><path id="" clip-rule="evenodd" transform="matrix(1 0 0 1 0 0)" d="M0 0L614.4 0L614.4 0L614.4 869.1512L614.4 869.1512L0 869.1512L0 869.1512L0 0z" /></clipPath><clipPath id="112"><path id="" clip-rule="evenodd" transform="matrix(1 0 0 1 0 0)" d="M484.7766 490.0214L579.1844 490.0214L579.1844 490.0214L579.1844 505.756L579.1844 505.756L484.7766 505.756L484.7766 505.756L484.7766 490.0214z" /></clipPath><clipPath id="113"><path id="" clip-rule="evenodd" transform="matrix(1 0 0 1 0 0)" d="M0 0L614.4 0L614.4 0L614.4 869.1512L614.4 869.1512L0 869.1512L0 869.1512L0 0z" /></clipPath><clipPath id="114"><path id="" clip-rule="evenodd" transform="matrix(1 0 0 1 0 0)" d="M0 0L614.4 0L614.4 0L614.4 869.1512L614.4 869.1512L0 869.1512L0 869.1512L0 0z" /></clipPath><clipPath id="115"><path id="" clip-rule="evenodd" transform="matrix(1 0 0 1 0 0)" d="M484.7766 490.0214L579.1844 490.0214L579.1844 490.0214L579.1844 505.756L579.1844 505.756L484.7766 505.756L484.7766 505.756L484.7766 490.0214z" /></clipPath><clipPath id="116"><path id="" clip-rule="evenodd" transform="matrix(1 0 0 1 0 0)" d="M0 0L614.4 0L614.4 0L614.4 869.1512L614.4 869.1512L0 869.1512L0 869.1512L0 0z" /></clipPath><clipPath id="117"><path id="" clip-rule="evenodd" transform="matrix(1 0 0 1 0 0)" d="M0 0L614.4 0L614.4 0L614.4 869.1512L614.4 869.1512L0 869.1512L0 869.1512L0 0z" /></clipPath><clipPath id="118"><path id="" clip-rule="evenodd" transform="matrix(1 0 0 1 0 0)" d="M484.7766 490.0214L579.1844 490.0214L579.1844 490.0214L579.1844 505.756L579.1844 505.756L484.7766 505.756L484.7766 505.756L484.7766 490.0214z" /></clipPath><clipPath id="119"><path id="" clip-rule="evenodd" transform="matrix(1 0 0 1 0 0)" d="M0 0L614.4 0L614.4 0L614.4 869.1512L614.4 869.1512L0 869.1512L0 869.1512L0 0z" /></clipPath><clipPath id="120"><path id="" clip-rule="evenodd" transform="matrix(1 0 0 1 0 0)" d="M0 0L614.4 0L614.4 0L614.4 869.1512L614.4 869.1512L0 869.1512L0 869.1512L0 0z" /></clipPath><clipPath id="121"><path id="" clip-rule="evenodd" transform="matrix(1 0 0 1 0 0)" d="M484.7766 490.0214L579.1844 490.0214L579.1844 490.0214L579.1844 505.756L579.1844 505.756L484.7766 505.756L484.7766 505.756L484.7766 490.0214z" /></clipPath><clipPath id="122"><path id="" clip-rule="evenodd" transform="matrix(1 0 0 1 0 0)" d="M0 0L614.4 0L614.4 0L614.4 869.1512L614.4 869.1512L0 869.1512L0 869.1512L0 0z" /></clipPath><clipPath id="123"><path id="" clip-rule="evenodd" transform="matrix(1 0 0 1 0 0)" d="M0 0L614.4 0L614.4 0L614.4 869.1512L614.4 869.1512L0 869.1512L0 869.1512L0 0z" /></clipPath><clipPath id="124"><path id="" clip-rule="evenodd" transform="matrix(1 0 0 1 0 0)" d="M331.1765 490.0214L468.2927 490.0214L468.2927 490.0214L468.2927 505.756L468.2927 505.756L331.1765 505.756L331.1765 505.756L331.1765 490.0214z" /></clipPath><clipPath id="125"><path id="" clip-rule="evenodd" transform="matrix(1 0 0 1 0 0)" d="M0 0L614.4 0L614.4 0L614.4 869.1512L614.4 869.1512L0 869.1512L0 869.1512L0 0z" /></clipPath><clipPath id="126"><path id="" clip-rule="evenodd" transform="matrix(1 0 0 1 0 0)" d="M0 0L614.4 0L614.4 0L614.4 869.1512L614.4 869.1512L0 869.1512L0 869.1512L0 0z" /></clipPath><clipPath id="127"><path id="" clip-rule="evenodd" transform="matrix(1 0 0 1 0 0)" d="M331.1765 490.0214L468.2927 490.0214L468.2927 490.0214L468.2927 505.756L468.2927 505.756L331.1765 505.756L331.1765 505.756L331.1765 490.0214z" /></clipPath><clipPath id="128"><path id="" clip-rule="evenodd" transform="matrix(1 0 0 1 0 0)" d="M0 0L614.4 0L614.4 0L614.4 869.1512L614.4 869.1512L0 869.1512L0 869.1512L0 0z" /></clipPath><clipPath id="129"><path id="" clip-rule="evenodd" transform="matrix(1 0 0 1 0 0)" d="M0 0L614.4 0L614.4 0L614.4 869.1512L614.4 869.1512L0 869.1512L0 869.1512L0 0z" /></clipPath><clipPath id="130"><path id="" clip-rule="evenodd" transform="matrix(1 0 0 1 0 0)" d="M331.1765 490.0214L468.2927 490.0214L468.2927 490.0214L468.2927 505.756L468.2927 505.756L331.1765 505.756L331.1765 505.756L331.1765 490.0214z" /></clipPath><clipPath id="131"><path id="" clip-rule="evenodd" transform="matrix(1 0 0 1 0 0)" d="M0 0L614.4 0L614.4 0L614.4 869.1512L614.4 869.1512L0 869.1512L0 869.1512L0 0z" /></clipPath><clipPath id="132"><path id="" clip-rule="evenodd" transform="matrix(1 0 0 1 0 0)" d="M0 0L614.4 0L614.4 0L614.4 869.1512L614.4 869.1512L0 869.1512L0 869.1512L0 0z" /></clipPath><clipPath id="133"><path id="" clip-rule="evenodd" transform="matrix(1 0 0 1 0 0)" d="M331.1765 490.0214L468.2927 490.0214L468.2927 490.0214L468.2927 505.756L468.2927 505.756L331.1765 505.756L331.1765 505.756L331.1765 490.0214z" /></clipPath><clipPath id="134"><path id="" clip-rule="evenodd" transform="matrix(1 0 0 1 0 0)" d="M0 0L614.4 0L614.4 0L614.4 869.1512L614.4 869.1512L0 869.1512L0 869.1512L0 0z" /></clipPath><clipPath id="135"><path id="" clip-rule="evenodd" transform="matrix(1 0 0 1 0 0)" d="M0 0L614.4 0L614.4 0L614.4 869.1512L614.4 869.1512L0 869.1512L0 869.1512L0 0z" /></clipPath><clipPath id="136"><path id="" clip-rule="evenodd" transform="matrix(1 0 0 1 0 0)" d="M484.7766 621.8926L579.1844 621.8926L579.1844 621.8926L579.1844 637.6273L579.1844 637.6273L484.7766 637.6273L484.7766 637.6273L484.7766 621.8926z" /></clipPath><clipPath id="137"><path id="" clip-rule="evenodd" transform="matrix(1 0 0 1 0 0)" d="M0 0L614.4 0L614.4 0L614.4 869.1512L614.4 869.1512L0 869.1512L0 869.1512L0 0z" /></clipPath><clipPath id="138"><path id="" clip-rule="evenodd" transform="matrix(1 0 0 1 0 0)" d="M0 0L614.4 0L614.4 0L614.4 869.1512L614.4 869.1512L0 869.1512L0 869.1512L0 0z" /></clipPath><clipPath id="139"><path id="" clip-rule="evenodd" transform="matrix(1 0 0 1 0 0)" d="M484.7766 621.8926L579.1844 621.8926L579.1844 621.8926L579.1844 637.6273L579.1844 637.6273L484.7766 637.6273L484.7766 637.6273L484.7766 621.8926z" /></clipPath><clipPath id="140"><path id="" clip-rule="evenodd" transform="matrix(1 0 0 1 0 0)" d="M0 0L614.4 0L614.4 0L614.4 869.1512L614.4 869.1512L0 869.1512L0 869.1512L0 0z" /></clipPath><clipPath id="141"><path id="" clip-rule="evenodd" transform="matrix(1 0 0 1 0 0)" d="M0 0L614.4 0L614.4 0L614.4 869.1512L614.4 869.1512L0 869.1512L0 869.1512L0 0z" /></clipPath><clipPath id="142"><path id="" clip-rule="evenodd" transform="matrix(1 0 0 1 0 0)" d="M484.7766 621.8926L579.1844 621.8926L579.1844 621.8926L579.1844 637.6273L579.1844 637.6273L484.7766 637.6273L484.7766 637.6273L484.7766 621.8926z" /></clipPath><clipPath id="143"><path id="" clip-rule="evenodd" transform="matrix(1 0 0 1 0 0)" d="M0 0L614.4 0L614.4 0L614.4 869.1512L614.4 869.1512L0 869.1512L0 869.1512L0 0z" /></clipPath><clipPath id="144"><path id="" clip-rule="evenodd" transform="matrix(1 0 0 1 0 0)" d="M0 0L614.4 0L614.4 0L614.4 869.1512L614.4 869.1512L0 869.1512L0 869.1512L0 0z" /></clipPath><clipPath id="145"><path id="" clip-rule="evenodd" transform="matrix(1 0 0 1 0 0)" d="M484.7766 621.8926L579.1844 621.8926L579.1844 621.8926L579.1844 637.6273L579.1844 637.6273L484.7766 637.6273L484.7766 637.6273L484.7766 621.8926z" /></clipPath><clipPath id="146"><path id="" clip-rule="evenodd" transform="matrix(1 0 0 1 0 0)" d="M0 0L614.4 0L614.4 0L614.4 869.1512L614.4 869.1512L0 869.1512L0 869.1512L0 0z" /></clipPath><clipPath id="147"><path id="" clip-rule="evenodd" transform="matrix(1 0 0 1 0 0)" d="M0 0L614.4 0L614.4 0L614.4 869.1512L614.4 869.1512L0 869.1512L0 869.1512L0 0z" /></clipPath><clipPath id="148"><path id="" clip-rule="evenodd" transform="matrix(1 0 0 1 0 0)" d="M331.1765 621.8926L468.2927 621.8926L468.2927 621.8926L468.2927 637.6273L468.2927 637.6273L331.1765 637.6273L331.1765 637.6273L331.1765 621.8926z" /></clipPath><clipPath id="149"><path id="" clip-rule="evenodd" transform="matrix(1 0 0 1 0 0)" d="M0 0L614.4 0L614.4 0L614.4 869.1512L614.4 869.1512L0 869.1512L0 869.1512L0 0z" /></clipPath><clipPath id="150"><path id="" clip-rule="evenodd" transform="matrix(1 0 0 1 0 0)" d="M0 0L614.4 0L614.4 0L614.4 869.1512L614.4 869.1512L0 869.1512L0 869.1512L0 0z" /></clipPath><clipPath id="151"><path id="" clip-rule="evenodd" transform="matrix(1 0 0 1 0 0)" d="M331.1765 621.8926L468.2927 621.8926L468.2927 621.8926L468.2927 637.6273L468.2927 637.6273L331.1765 637.6273L331.1765 637.6273L331.1765 621.8926z" /></clipPath><clipPath id="152"><path id="" clip-rule="evenodd" transform="matrix(1 0 0 1 0 0)" d="M0 0L614.4 0L614.4 0L614.4 869.1512L614.4 869.1512L0 869.1512L0 869.1512L0 0z" /></clipPath><clipPath id="153"><path id="" clip-rule="evenodd" transform="matrix(1 0 0 1 0 0)" d="M0 0L614.4 0L614.4 0L614.4 869.1512L614.4 869.1512L0 869.1512L0 869.1512L0 0z" /></clipPath><clipPath id="154"><path id="" clip-rule="evenodd" transform="matrix(1 0 0 1 0 0)" d="M331.1765 621.8926L468.2927 621.8926L468.2927 621.8926L468.2927 637.6273L468.2927 637.6273L331.1765 637.6273L331.1765 637.6273L331.1765 621.8926z" /></clipPath><clipPath id="155"><path id="" clip-rule="evenodd" transform="matrix(1 0 0 1 0 0)" d="M0 0L614.4 0L614.4 0L614.4 869.1512L614.4 869.1512L0 869.1512L0 869.1512L0 0z" /></clipPath><clipPath id="156"><path id="" clip-rule="evenodd" transform="matrix(1 0 0 1 0 0)" d="M0 0L614.4 0L614.4 0L614.4 869.1512L614.4 869.1512L0 869.1512L0 869.1512L0 0z" /></clipPath><clipPath id="157"><path id="" clip-rule="evenodd" transform="matrix(1 0 0 1 0 0)" d="M331.1765 621.8926L468.2927 621.8926L468.2927 621.8926L468.2927 637.6273L468.2927 637.6273L331.1765 637.6273L331.1765 637.6273L331.1765 621.8926z" /></clipPath><clipPath id="158"><path id="" clip-rule="evenodd" transform="matrix(1 0 0 1 0 0)" d="M0 0L614.4 0L614.4 0L614.4 869.1512L614.4 869.1512L0 869.1512L0 869.1512L0 0z" /></clipPath><clipPath id="159"><path id="" clip-rule="evenodd" transform="matrix(1 0 0 1 0 0)" d="M0 0L614.4 0L614.4 0L614.4 869.1512L614.4 869.1512L0 869.1512L0 869.1512L0 0z" /></clipPath><clipPath id="160"><path id="" clip-rule="evenodd" transform="matrix(1 0 0 1 0 0)" d="M255.5005 709.5571L591.1727 709.5571L591.1727 709.5571L591.1727 732.0351L591.1727 732.0351L255.5005 732.0351L255.5005 732.0351L255.5005 709.5571z" /></clipPath><clipPath id="161"><path id="" clip-rule="evenodd" transform="matrix(1 0 0 1 0 0)" d="M0 0L614.4 0L614.4 0L614.4 869.1512L614.4 869.1512L0 869.1512L0 869.1512L0 0z" /></clipPath><clipPath id="162"><path id="" clip-rule="evenodd" transform="matrix(1 0 0 1 0 0)" d="M0 0L614.4 0L614.4 0L614.4 869.1512L614.4 869.1512L0 869.1512L0 869.1512L0 0z" /></clipPath><clipPath id="163"><path id="" clip-rule="evenodd" transform="matrix(1 0 0 1 0 0)" d="M255.5005 709.5571L591.1727 709.5571L591.1727 709.5571L591.1727 731.2858L591.1727 731.2858L255.5005 731.2858L255.5005 731.2858L255.5005 709.5571z" /></clipPath><clipPath id="164"><path id="" clip-rule="evenodd" transform="matrix(1 0 0 1 0 0)" d="M0 0L614.4 0L614.4 0L614.4 869.1512L614.4 869.1512L0 869.1512L0 869.1512L0 0z" /></clipPath></defs><g transform="matrix(1.333333 0 0 1.333333 0 0)"><g clip-path="url(#1)"><g clip-path="url(#2)"><path id="1" transform="matrix(1 0 0 -1 0 870)" d="M0 870L614.4 870L614.4 0.8487549L0 0.8487549z" stroke="none" fill="#FFFFFF" fill-rule="nonzero" /><path id="2" transform="matrix(1 0 0 -1 0 870)" d="M0 870L614.4 870L614.4 0.8487549L0 0.8487549z" stroke="none" fill="#FFFFFF" fill-rule="nonzero" /><path id="3" transform="matrix(1 0 0 -1 0 870)" d="M0 870L202.3024 870L202.3024 0.8487549L0 0.8487549z" stroke="none" fill="#254665" fill-rule="nonzero" /><path id="4" transform="matrix(1 0 0 -1 0 870)" d="M202.3024 870L614.4 870L614.4 3.845825L202.3024 3.845825z" stroke="none" fill="#FFFFFF" fill-rule="nonzero" /></g><g clip-path="url(#3)"><g clip-path="url(#4)"><path id="5" transform="matrix(1 0 0 -1 0 870)" d="M58.44292 839.28L154.3493 839.28L154.3493 720.8956L58.44292 720.8956z" stroke="none" fill="#E5E5E5" fill-rule="nonzero" /><path id="6" transform="matrix(1 0 0 -1 0 870)" d="M58.44292 839.28L154.3493 839.28L154.3493 836.283L58.44292 836.283z" stroke="none" fill="#E5E5E5" fill-rule="nonzero" /><path id="7" transform="matrix(1 0 0 -1 0 870)" d="M58.44292 723.8927L154.3493 723.8927L154.3493 720.8956L58.44292 720.8956z" stroke="none" fill="#E5E5E5" fill-rule="nonzero" /><path id="8" transform="matrix(1 0 0 -1 0 870)" d="M58.44292 839.28L61.43999 839.28L61.43999 720.8956L58.44292 720.8956z" stroke="none" fill="#E5E5E5" fill-rule="nonzero" /><path id="9" transform="matrix(1 0 0 -1 0 870)" d="M151.3522 839.28L154.3493 839.28L154.3493 720.8956L151.3522 720.8956z" stroke="none" fill="#E5E5E5" fill-rule="nonzero" /></g></g><g clip-path="url(#5)"></g><g clip-path="url(#6)"><g clip-path="url(#7)"></g></g><g clip-path="url(#8)"><g clip-path="url(#9)"><g clip-path="url(#10)"></g></g></g><g clip-path="url(#11)"></g><g clip-path="url(#12)"><g clip-path="url(#13)"></g></g><g clip-path="url(#14)"><g clip-path="url(#15)"><g clip-path="url(#16)"></g></g></g><g clip-path="url(#17)"></g><g clip-path="url(#18)"><g clip-path="url(#19)"></g></g><g clip-path="url(#20)"><g clip-path="url(#21)"><g clip-path="url(#22)"><g transform="matrix(0.2928735 0 0 0.2926829 61.43999 33.7171)"><g transform="matrix(1 0 0 1 0 0)"><image x="0" y="0" xlink:href="img_01.png" width="307" height="384" /></g></g></g></g></g><g clip-path="url(#23)"></g><g clip-path="url(#24)"><g clip-path="url(#25)"></g></g><g clip-path="url(#26)"><g clip-path="url(#27)"><g clip-path="url(#28)"></g></g></g><g clip-path="url(#29)"></g><g clip-path="url(#30)"><g clip-path="url(#31)"></g></g><g clip-path="url(#32)"><path id="52" transform="matrix(1 0 0 -1 0 870)" d="M34.46634 534.3279C 40.67028 534.3279 45.70536 529.2927 45.70536 523.0888C 45.70536 516.8849 40.67028 511.8498 34.46634 511.8498C 28.2624 511.8498 23.22732 516.8849 23.22732 523.0888C 23.22732 529.2927 28.2624 534.3279 34.46634 534.3279z" stroke="none" fill="#FFFFFF" fill-rule="evenodd" /><path id="63" transform="matrix(1 0 0 -1 0 870)" d="M23.22732 465.3951L131.1219 465.3951L131.1219 457.9024L23.22732 457.9024z" stroke="none" fill="#F4F4F4" fill-rule="nonzero" /><path id="64" transform="matrix(1 0 0 -1 0 870)" d="M23.22732 465.3951L50.20097 465.3951L50.20097 457.9024L23.22732 457.9024z" stroke="none" fill="#4487C6" fill-rule="nonzero" /><path id="73" transform="matrix(1 0 0 -1 0 870)" d="M23.22732 422.6868L131.1219 422.6868L131.1219 415.1942L23.22732 415.1942z" stroke="none" fill="#F4F4F4" fill-rule="nonzero" /><path id="74" transform="matrix(1 0 0 -1 0 870)" d="M23.22732 422.6868L50.20097 422.6868L50.20097 415.1942L23.22732 415.1942z" stroke="none" fill="#4487C6" fill-rule="nonzero" /><path id="83" transform="matrix(1 0 0 -1 0 870)" d="M23.22732 379.9785L131.1219 379.9785L131.1219 372.4858L23.22732 372.4858z" stroke="none" fill="#F4F4F4" fill-rule="nonzero" /><path id="84" transform="matrix(1 0 0 -1 0 870)" d="M23.22732 379.9785L50.20097 379.9785L50.20097 372.4858L23.22732 372.4858z" stroke="none" fill="#4487C6" fill-rule="nonzero" /><path id="92" transform="matrix(1 0 0 -1 0 870)" d="M23.22732 337.2703L131.1219 337.2703L131.1219 329.7776L23.22732 329.7776z" stroke="none" fill="#F4F4F4" fill-rule="nonzero" /><path id="93" transform="matrix(1 0 0 -1 0 870)" d="M23.22732 337.2703L50.20097 337.2703L50.20097 329.7776L23.22732 329.7776z" stroke="none" fill="#4487C6" fill-rule="nonzero" /></g><g clip-path="url(#33)"><g clip-path="url(#34)"></g></g><g clip-path="url(#35)"></g><g clip-path="url(#36)"><g clip-path="url(#37)"></g></g><g clip-path="url(#38)"><path id="100" transform="matrix(1 0 0 -1 0 870)" d="M34.46634 279.5767C 40.67028 279.5767 45.70536 274.5416 45.70536 268.3376C 45.70536 262.1336 40.67028 257.0986 34.46634 257.0986C 28.2624 257.0986 23.22732 262.1336 23.22732 268.3376C 23.22732 274.5416 28.2624 279.5767 34.46634 279.5767z" stroke="none" fill="#FFFFFF" fill-rule="evenodd" /><path id="102" transform="matrix(1 0 0 -1 0 870)" d="M26.22439 233.8713L65.18633 233.8713C 66.42712 233.8713 67.43414 232.8643 67.43414 231.6235L67.43414 231.6235L67.43414 192.6615C 67.43414 191.4207 66.42712 190.4137 65.18633 190.4137L65.18633 190.4137L26.22439 190.4137C 24.9836 190.4137 23.97658 191.4207 23.97658 192.6615L23.97658 192.6615L23.97658 231.6235C 23.97658 232.8643 24.9836 233.8713 26.22439 233.8713zM26.22439 234.6205L65.18633 234.6205C 66.84072 234.6205 68.18341 233.2778 68.18341 231.6235L68.18341 231.6235L68.18341 192.6615C 68.18341 191.0071 66.84072 189.6644 65.18633 189.6644L65.18633 189.6644L26.22439 189.6644C 24.57001 189.6644 23.22732 191.0071 23.22732 192.6615L23.22732 192.6615L23.22732 231.6235C 23.22732 233.2778 24.57001 234.6205 26.22439 234.6205z" stroke="none" fill="#FFFFFF" fill-rule="evenodd" fill-opacity="0.4" /><path id="106" transform="matrix(1 0 0 -1 0 870)" d="M101.1512 233.8713L140.1132 233.8713C 141.354 233.8713 142.361 232.8643 142.361 231.6235L142.361 231.6235L142.361 192.6615C 142.361 191.4207 141.354 190.4137 140.1132 190.4137L140.1132 190.4137L101.1512 190.4137C 99.91042 190.4137 98.9034 191.4207 98.9034 192.6615L98.9034 192.6615L98.9034 231.6235C 98.9034 232.8643 99.91042 233.8713 101.1512 233.8713zM101.1512 234.6205L140.1132 234.6205C 141.7675 234.6205 143.1102 233.2778 143.1102 231.6235L143.1102 231.6235L143.1102 192.6615C 143.1102 191.0071 141.7675 189.6644 140.1132 189.6644L140.1132 189.6644L101.1512 189.6644C 99.49683 189.6644 98.15414 191.0071 98.15414 192.6615L98.15414 192.6615L98.15414 231.6235C 98.15414 233.2778 99.49683 234.6205 101.1512 234.6205z" stroke="none" fill="#FFFFFF" fill-rule="evenodd" fill-opacity="0.4" /><path id="110" transform="matrix(1 0 0 -1 0 870)" d="M26.22439 161.9415L65.18633 161.9415C 66.42712 161.9415 67.43414 160.9345 67.43414 159.6937L67.43414 159.6937L67.43414 120.7318C 67.43414 119.491 66.42712 118.4839 65.18633 118.4839L65.18633 118.4839L26.22439 118.4839C 24.9836 118.4839 23.97658 119.491 23.97658 120.7318L23.97658 120.7318L23.97658 159.6937C 23.97658 160.9345 24.9836 161.9415 26.22439 161.9415zM26.22439 162.6908L65.18633 162.6908C 66.84072 162.6908 68.18341 161.3481 68.18341 159.6937L68.18341 159.6937L68.18341 120.7318C 68.18341 119.0773 66.84072 117.7347 65.18633 117.7347L65.18633 117.7347L26.22439 117.7347C 24.57001 117.7347 23.22732 119.0773 23.22732 120.7318L23.22732 120.7318L23.22732 159.6937C 23.22732 161.3481 24.57001 162.6908 26.22439 162.6908z" stroke="none" fill="#FFFFFF" fill-rule="evenodd" fill-opacity="0.4" /><path id="114" transform="matrix(1 0 0 -1 0 870)" d="M101.1512 161.9415L140.1132 161.9415C 141.354 161.9415 142.361 160.9345 142.361 159.6937L142.361 159.6937L142.361 120.7318C 142.361 119.491 141.354 118.4839 140.1132 118.4839L140.1132 118.4839L101.1512 118.4839C 99.91042 118.4839 98.9034 119.491 98.9034 120.7318L98.9034 120.7318L98.9034 159.6937C 98.9034 160.9345 99.91042 161.9415 101.1512 161.9415zM101.1512 162.6908L140.1132 162.6908C 141.7675 162.6908 143.1102 161.3481 143.1102 159.6937L143.1102 159.6937L143.1102 120.7318C 143.1102 119.0773 141.7675 117.7347 140.1132 117.7347L140.1132 117.7347L101.1512 117.7347C 99.49683 117.7347 98.15414 119.0773 98.15414 120.7318L98.15414 120.7318L98.15414 159.6937C 98.15414 161.3481 99.49683 162.6908 101.1512 162.6908z" stroke="none" fill="#FFFFFF" fill-rule="evenodd" fill-opacity="0.4" /></g><g clip-path="url(#39)"><g clip-path="url(#40)"></g></g><g clip-path="url(#41)"></g><g clip-path="url(#42)"><g clip-path="url(#43)"></g></g><g clip-path="url(#44)"><path id="127" transform="matrix(1 0 0 -1 0 870)" d="M236.7688 783.8342C 242.9727 783.8342 248.0078 778.7991 248.0078 772.5952C 248.0078 766.3912 242.9727 761.3561 236.7688 761.3561C 230.5648 761.3561 225.5297 766.3912 225.5297 772.5952C 225.5297 778.7991 230.5648 783.8342 236.7688 783.8342z" stroke="none" fill="#254665" fill-rule="evenodd" /></g><g clip-path="url(#45)"><g clip-path="url(#46)"><path id="132" transform="matrix(1 0 0 -1 0 870)" d="M255.5005 762.1053L591.1726 762.1053L591.1726 761.3561L255.5005 761.3561z" stroke="none" fill="#254665" fill-rule="nonzero" /></g></g><g clip-path="url(#47)"></g><g clip-path="url(#48)"><g clip-path="url(#49)"></g></g><g clip-path="url(#50)"><path id="158" transform="matrix(1 0 0 -1 0 870)" d="M236.7688 684.1815C 242.9727 684.1815 248.0078 679.1464 248.0078 672.9424C 248.0078 666.7385 242.9727 661.7034 236.7688 661.7034C 230.5648 661.7034 225.5297 666.7385 225.5297 672.9424C 225.5297 679.1464 230.5648 684.1815 236.7688 684.1815z" stroke="none" fill="#254665" fill-rule="evenodd" /></g><g clip-path="url(#51)"><g clip-path="url(#52)"><path id="160" transform="matrix(1 0 0 -1 0 870)" d="M255.5005 662.4527L591.1726 662.4527L591.1726 661.7034L255.5005 661.7034z" stroke="none" fill="#254665" fill-rule="nonzero" /></g></g><g clip-path="url(#53)"></g><g clip-path="url(#54)"><g clip-path="url(#55)"></g></g><g clip-path="url(#56)"></g><g clip-path="url(#57)"><g clip-path="url(#58)"></g></g><g clip-path="url(#59)"></g><g clip-path="url(#60)"><g clip-path="url(#61)"></g></g><g clip-path="url(#62)"></g><g clip-path="url(#63)"><g clip-path="url(#64)"></g></g><g clip-path="url(#65)"></g><g clip-path="url(#66)"><g clip-path="url(#67)"></g></g><g clip-path="url(#68)"></g><g clip-path="url(#69)"><g clip-path="url(#70)"></g></g><g clip-path="url(#71)"></g><g clip-path="url(#72)"><g clip-path="url(#73)"></g></g><g clip-path="url(#74)"></g><g clip-path="url(#75)"><g clip-path="url(#76)"></g></g><g clip-path="url(#77)"></g><g clip-path="url(#78)"><g clip-path="url(#79)"></g></g><g clip-path="url(#80)"><path id="259" transform="matrix(1 0 0 -1 0 870)" d="M236.7688 546.3162C 242.9727 546.3162 248.0078 541.281 248.0078 535.0771C 248.0078 528.8732 242.9727 523.8381 236.7688 523.8381C 230.5648 523.8381 225.5297 528.8732 225.5297 535.0771C 225.5297 541.281 230.5648 546.3162 236.7688 546.3162z" stroke="none" fill="#254665" fill-rule="evenodd" /></g><g clip-path="url(#81)"><g clip-path="url(#82)"><path id="261" transform="matrix(1 0 0 -1 0 870)" d="M255.5005 524.5873L591.1726 524.5873L591.1726 523.838L255.5005 523.838z" stroke="none" fill="#254665" fill-rule="nonzero" /></g></g><g clip-path="url(#83)"></g><g clip-path="url(#84)"><g clip-path="url(#85)"></g></g><g clip-path="url(#86)"></g><g clip-path="url(#87)"><g clip-path="url(#88)"></g></g><g clip-path="url(#89)"></g><g clip-path="url(#90)"><g clip-path="url(#91)"></g></g><g clip-path="url(#92)"></g><g clip-path="url(#93)"><g clip-path="url(#94)"></g></g><g clip-path="url(#95)"></g><g clip-path="url(#96)"><g clip-path="url(#97)"></g></g><g clip-path="url(#98)"></g><g clip-path="url(#99)"><g clip-path="url(#100)"></g></g><g clip-path="url(#101)"></g><g clip-path="url(#102)"><g clip-path="url(#103)"></g></g><g clip-path="url(#104)"></g><g clip-path="url(#105)"><g clip-path="url(#106)"></g></g><g clip-path="url(#107)"></g><g clip-path="url(#108)"><g clip-path="url(#109)"></g></g><g clip-path="url(#110)"><path id="292" transform="matrix(1 0 0 -1 0 870)" d="M232.2731 468.7668C 232.2731 467.7323 231.4345 466.8936 230.4 466.8936C 229.3655 466.8936 228.5268 467.7323 228.5268 468.7668C 228.5268 469.8014 229.3655 470.64 230.4 470.64C 231.4345 470.64 232.2731 469.8014 232.2731 468.7668z" stroke="#666666" stroke-width="0.7492682" fill="#666666" fill-rule="evenodd" /><path id="311" transform="matrix(1 0 0 -1 0 870)" d="M232.2731 442.5424C 232.2731 441.5079 231.4345 440.6693 230.4 440.6693C 229.3655 440.6693 228.5268 441.5079 228.5268 442.5424C 228.5268 443.577 229.3655 444.4156 230.4 444.4156C 231.4345 444.4156 232.2731 443.577 232.2731 442.5424z" stroke="#666666" stroke-width="0.7492682" fill="#666666" fill-rule="evenodd" /><path id="362" transform="matrix(1 0 0 -1 0 870)" d="M232.2731 400.5834C 232.2731 399.5489 231.4345 398.7102 230.4 398.7102C 229.3655 398.7102 228.5268 399.5489 228.5268 400.5834C 228.5268 401.618 229.3655 402.4566 230.4 402.4566C 231.4345 402.4566 232.2731 401.618 232.2731 400.5834z" stroke="#666666" stroke-width="0.7492682" fill="#666666" fill-rule="evenodd" /></g><g clip-path="url(#111)"><g clip-path="url(#112)"></g></g><g clip-path="url(#113)"></g><g clip-path="url(#114)"><g clip-path="url(#115)"></g></g><g clip-path="url(#116)"></g><g clip-path="url(#117)"><g clip-path="url(#118)"></g></g><g clip-path="url(#119)"></g><g clip-path="url(#120)"><g clip-path="url(#121)"></g></g><g clip-path="url(#122)"></g><g clip-path="url(#123)"><g clip-path="url(#124)"></g></g><g clip-path="url(#125)"></g><g clip-path="url(#126)"><g clip-path="url(#127)"></g></g><g clip-path="url(#128)"></g><g clip-path="url(#129)"><g clip-path="url(#130)"></g></g><g clip-path="url(#131)"></g><g clip-path="url(#132)"><g clip-path="url(#133)"></g></g><g clip-path="url(#134)"></g><g clip-path="url(#135)"><g clip-path="url(#136)"></g></g><g clip-path="url(#137)"></g><g clip-path="url(#138)"><g clip-path="url(#139)"></g></g><g clip-path="url(#140)"></g><g clip-path="url(#141)"><g clip-path="url(#142)"></g></g><g clip-path="url(#143)"></g><g clip-path="url(#144)"><g clip-path="url(#145)"></g></g><g clip-path="url(#146)"></g><g clip-path="url(#147)"><g clip-path="url(#148)"></g></g><g clip-path="url(#149)"></g><g clip-path="url(#150)"><g clip-path="url(#151)"></g></g><g clip-path="url(#152)"></g><g clip-path="url(#153)"><g clip-path="url(#154)"></g></g><g clip-path="url(#155)"></g><g clip-path="url(#156)"><g clip-path="url(#157)"></g></g><g clip-path="url(#158)"><path id="577" transform="matrix(1 0 0 -1 0 870)" d="M236.7688 160.4429C 242.9727 160.4429 248.0078 155.4079 248.0078 149.204C 248.0078 143 242.9727 137.9649 236.7688 137.9649C 230.5648 137.9649 225.5297 143 225.5297 149.204C 225.5297 155.4079 230.5648 160.4429 236.7688 160.4429z" stroke="none" fill="#254665" fill-rule="evenodd" /></g><g clip-path="url(#159)"><g clip-path="url(#160)"><path id="579" transform="matrix(1 0 0 -1 0 870)" d="M255.5005 138.7142L591.1726 138.7142L591.1726 137.9649L255.5005 137.9649z" stroke="none" fill="#254665" fill-rule="nonzero" /></g></g><g clip-path="url(#161)"></g><g clip-path="url(#162)"><g clip-path="url(#163)"></g></g><g clip-path="url(#164)"></g></g></g></svg>